<?xml version="1.0" encoding="utf-8"?>
<!-- Generator: Adobe Illustrator 26.1.0, SVG Export Plug-In . SVG Version: 6.00 Build 0)  -->
<svg version="1.1"
	 id="svg8" inkscape:version="1.0 (4035a4fb49, 2020-05-01)" sodipodi:docname="Logo.svg" xmlns:cc="http://creativecommons.org/ns#" xmlns:dc="http://purl.org/dc/elements/1.1/" xmlns:inkscape="http://www.inkscape.org/namespaces/inkscape" xmlns:rdf="http://www.w3.org/1999/02/22-rdf-syntax-ns#" xmlns:sodipodi="http://sodipodi.sourceforge.net/DTD/sodipodi-0.dtd" xmlns:svg="http://www.w3.org/2000/svg"
	 xmlns="http://www.w3.org/2000/svg" xmlns:xlink="http://www.w3.org/1999/xlink" x="0px" y="0px" viewBox="0 0 309.7 309.7"
	 style="enable-background:new 0 0 309.7 309.7;" xml:space="preserve">
<style type="text/css">
	.st0{fill-rule:evenodd;clip-rule:evenodd;fill:#F9F9F9;}
	.st1{fill:#B728E2;}
	.st2{fill:#F036A0;}
	.st3{fill:#90209E;}
	.st4{fill:#EB42C3;}
	.st5{fill:#B42191;}
	.st6{fill:#D02472;}
	.st7{fill:#FE945D;}
	.st8{fill:#DE2F58;}
	.st9{fill:#AE69DD;}
	.st10{fill:#FBCC5A;}
	.st11{fill:#FB7051;}
	.st12{fill:#FB3573;}
	.st13{fill:#FD7A85;}
	.st14{fill:#F942A0;}
	.st15{fill:#B1218F;}
	.st16{fill:#631FA4;}
	.st17{fill:#B61F90;}
	.st18{fill:#64177A;}
	.st19{fill:#F93D56;}
	.st20{fill:#581471;}
	.st21{fill:#A757FE;}
	.st22{fill:#EA40C2;}
</style>
<sodipodi:namedview  bordercolor="#666666" borderopacity="1.0" id="base" inkscape:current-layer="layer1" inkscape:cx="1941.0349" inkscape:cy="-161.91513" inkscape:document-rotation="0" inkscape:document-units="mm" inkscape:pageopacity="0.0" inkscape:pageshadow="2" inkscape:window-height="1017" inkscape:window-maximized="1" inkscape:window-width="1920" inkscape:window-x="1912" inkscape:window-y="-8" inkscape:zoom="0.70710678" pagecolor="#ffffff" showgrid="false">
	</sodipodi:namedview>
<g id="layer1" inkscape:groupmode="layer" inkscape:label="Layer 1">
	<circle id="path886" class="st0" cx="154.9" cy="154.9" r="154.9"/>
	<g id="g924" transform="translate(44.927186,-176.85033)">
		<path id="path880" sodipodi:nodetypes="ccccccc" class="st1" d="M77.6,367.7l12.2,27.7l20.2,69.2l1.1-93.5l-19.7,6.8l-3.8-14.8
			L77.6,367.7z"/>
		<path id="path875" sodipodi:nodetypes="ccccc" class="st2" d="M76.1,321.6l0.3,44.2l1.3,2.1l9.8-4.4L76.1,321.6z"/>
		<path id="path882" sodipodi:nodetypes="cccccccc" class="st3" d="M72.2,361.5l4.2,4.3l1.3,1.9l12.1,27.7l20.2,69.2l-6.6-20.4
			l-46.6-78.2L72.2,361.5z"/>
		<path id="path903" sodipodi:nodetypes="ccccccccc" class="st4" d="M110.4,353.6l2.4,17.9l-21.4,6.4l-4.2-14.3l-11.1-41.9l5.1,10.7
			l2-7.5l15.5-6.4L110.4,353.6z"/>
		<path id="path893" sodipodi:nodetypes="ccccccccccc" class="st5" d="M180.5,331.4l-37.6,35.8l-0.4-9.5L113,345.7l-2.5,7.9v18.1
			l-0.4,58.1l9.7,3.8l17.6-60.2l11.9,7.1L180.5,331.4z"/>
		<path id="path899" sodipodi:nodetypes="cccc" class="st6" d="M58.6,366.4l13.7-4.8l-32.9-29.2L58.6,366.4z"/>
		<path id="path847" class="st7" d="M48.3,268.2l19.3-33.9l-0.2,9.8l-2.8-1.9l-3.2,55.3L48.3,268.2z"/>
		<path id="path849" class="st8" d="M48.3,268.2l-1.4,1.9l0.4,51.2l12.3,5.5l7.9,20.6l0-103.3l-2.8-1.9l-3.2,55.3L48.3,268.2z"/>
		<path id="path851" sodipodi:nodetypes="cccc" class="st9" d="M3.1,346.7l36.1-13.5l0-51.1L3.1,346.7z"/>
		<path id="path853" sodipodi:nodetypes="ccccc" class="st7" d="M76.4,260l33.7-18.3l0-23.8l-10.8-0.8L76.4,260z"/>
		<path id="path855" sodipodi:nodetypes="cccccc" class="st10" d="M91.3,296.7l14.6-47l4.3,6.1l0-14.1L76.4,260L91.3,296.7z"/>
		<path id="path857" sodipodi:nodetypes="ccccc" class="st11" d="M76.4,260l-0.3,61.6l5.3,11.3l9.8-36.2L76.4,260z"/>
		<path id="path859" sodipodi:nodetypes="cccc" class="st10" d="M110,198.8l-10.7,18.3l10.8,0.8L110,198.8z"/>
		<path id="path861" class="st11" d="M151.5,234.8l0.5,13.9l2-3.3l4.2,52.2l13.9-25.2L151.5,234.8z"/>
		<path id="path863" class="st8" d="M151.5,348.3l20.4-20.1l0.3-55.7l-13.9,25.2l-4.2-52.2l-2,3.3L151.5,348.3z"/>
		<path id="path865" class="st12" d="M180.5,331.4l-0.1-50.9l36.4,67.4L180.5,331.4z"/>
		<path id="path867" class="st12" d="M176.6,383.8l40.2-35.9L190,398.6L176.6,383.8z"/>
		<path id="path869" sodipodi:nodetypes="cccc" class="st13" d="M175.8,384.5l4.7-53.1l36.3,16.5L175.8,384.5z"/>
		<path id="path871" class="st14" d="M39.3,332.3l1.1,50.1l-12.5,15.3l-24.8-51L39.3,332.3z"/>
		<path id="path873" sodipodi:nodetypes="ccccc" class="st15" d="M47.3,321.3l-0.3,8.5l20.6,17.6l-7.1-20.9L47.3,321.3z"/>
		<path id="path877" sodipodi:nodetypes="ccccc" class="st7" d="M110.4,353.6l-19.2-56.9l14.6-47l4.3,6.1L110.4,353.6z"/>
		<path id="path879" class="st11" d="M110.4,353.6l32.8-95.1L110,198.8L110.4,353.6z"/>
		<path id="path881" sodipodi:nodetypes="cccc" class="st8" d="M40.4,382.4l11.1-21.6l-12.1-28.5L40.4,382.4z"/>
		<path id="path883" sodipodi:nodetypes="ccccc" class="st16" d="M40.4,382.4l57.5,60.1l12.1,22.1l-82.1-67L40.4,382.4z"/>
		<path id="path870" class="st13" d="M83.2,324.8l15.5-6.4l-7.5-21.7L83.2,324.8z"/>
		<path id="path885" class="st13" d="M83.2,324.8l15.5-6.4l-7.5-21.7L83.2,324.8z"/>
		<path id="path887" class="st17" d="M176.6,383.8l-27.1,29.1l4.6,5.6l10,1.7l25.8-21.6L176.6,383.8z"/>
		<path id="path889" sodipodi:nodetypes="cccccc" class="st16" d="M164.5,419.9L110,464.6l11-21.2l28.7-31l4.7,5.7L164.5,419.9z"/>
		<path id="path891" sodipodi:nodetypes="ccccccc" class="st18" d="M121.4,443.5l31-56.5l28.1-55.6l-31.3,49l-11.8-6.9L110,464.6
			L121.4,443.5z"/>
		<path id="path895" class="st19" d="M143.2,258.5l-0.8,99.1L113,345.7L143.2,258.5z"/>
		<path id="path897" sodipodi:nodetypes="cccccc" class="st18" d="M39.3,332.3l11.4,28l45.8,81.4l13.5,22.9l-6.5-20.3L39.3,332.3z"
			/>
		<path id="path907" sodipodi:nodetypes="cccc" class="st16" d="M110.2,429.7l-0.1,35l9.5-31.3L110.2,429.7z"/>
		<path id="path872" sodipodi:nodetypes="cccc" class="st20" d="M121.4,443.5l59.1-112.1l-21.3,50.7L121.4,443.5z"/>
		<path id="path874" sodipodi:nodetypes="cccc" class="st21" d="M121.4,443.5l19.3-21l-5.4-2.4L121.4,443.5z"/>
		<path id="path876" sodipodi:nodetypes="cccccc" class="st22" d="M140.4,422.8l36.2-39l3.9-52.4l-22.1,50.1L135,420.7L140.4,422.8z
			"/>
		<path id="path878" class="st4" d="M50.7,360.3l-10.3,22.1l56.1,59.3L50.7,360.3z"/>
	</g>
</g>
</svg>
